<?xml version="1.0" encoding="iso-8859-1"?>
<!-- Generator: Adobe Illustrator 21.0.0, SVG Export Plug-In . SVG Version: 6.00 Build 0)  -->
<svg version="1.1" id="Capa_1" xmlns="http://www.w3.org/2000/svg" xmlns:xlink="http://www.w3.org/1999/xlink" x="0px" y="0px"
	 viewBox="0 0 1104 1104" style="enable-background:new 0 0 1104 1104;" xml:space="preserve">
<g>
	<g id="smartphone-mobile-SMS">
		
			<linearGradient id="SVGID_1_" gradientUnits="userSpaceOnUse" x1="423.2" y1="1071.5664" x2="423.2" y2="-45.8657" gradientTransform="matrix(1 0 0 -1 0 1102)">
			<stop  offset="0" style="stop-color:#FFF33B"/>
			<stop  offset="0.014" style="stop-color:#FEE72E"/>
			<stop  offset="0.042" style="stop-color:#FED51B"/>
			<stop  offset="0.07" style="stop-color:#FDCA10"/>
			<stop  offset="0.1" style="stop-color:#FDC70C"/>
			<stop  offset="0.4" style="stop-color:#F3903F"/>
			<stop  offset="0.8" style="stop-color:#ED683C"/>
			<stop  offset="1" style="stop-color:#E93E3A"/>
		</linearGradient>
		<path style="fill:url(#SVGID_1_);" d="M717.6,828c-10.162,0-18.4,8.238-18.4,18.4v110.4h-552V147.2h552v110.4
			c0,10.162,8.238,18.4,18.4,18.4c10.162,0,18.4-8.238,18.4-18.4v-184C736,32.952,703.048,0,662.4,0H184
			c-40.648,0-73.6,32.952-73.6,73.6V1012c0.061,50.785,41.215,91.939,92,92H644c50.785-0.061,91.939-41.215,92-92V846.4
			C736,836.238,727.762,828,717.6,828z M184,36.8h478.4c20.324,0,36.8,16.476,36.8,36.8v36.8h-552V73.6
			C147.2,53.276,163.676,36.8,184,36.8z M644,1067.2H202.4c-30.486,0-55.2-24.714-55.2-55.2v-18.4h552v18.4
			C699.2,1042.486,674.486,1067.2,644,1067.2z"/>
		
			<linearGradient id="SVGID_2_" gradientUnits="userSpaceOnUse" x1="423.2" y1="1052.5408" x2="423.2" y2="-45.9024" gradientTransform="matrix(1 0 0 -1 0 1102)">
			<stop  offset="0" style="stop-color:#FFF33B"/>
			<stop  offset="0.014" style="stop-color:#FEE72E"/>
			<stop  offset="0.042" style="stop-color:#FED51B"/>
			<stop  offset="0.07" style="stop-color:#FDCA10"/>
			<stop  offset="0.1" style="stop-color:#FDC70C"/>
			<stop  offset="0.4" style="stop-color:#F3903F"/>
			<stop  offset="0.8" style="stop-color:#ED683C"/>
			<stop  offset="1" style="stop-color:#E93E3A"/>
		</linearGradient>
		<path style="fill:url(#SVGID_2_);" d="M460,1012h-73.6c-10.162,0-18.4,8.238-18.4,18.4c0,10.162,8.238,18.4,18.4,18.4H460
			c10.162,0,18.4-8.238,18.4-18.4C478.4,1020.238,470.162,1012,460,1012z"/>
		
			<linearGradient id="SVGID_3_" gradientUnits="userSpaceOnUse" x1="552" y1="1075.4304" x2="552" y2="-47.0616" gradientTransform="matrix(1 0 0 -1 0 1102)">
			<stop  offset="0" style="stop-color:#FFF33B"/>
			<stop  offset="0.014" style="stop-color:#FEE72E"/>
			<stop  offset="0.042" style="stop-color:#FED51B"/>
			<stop  offset="0.07" style="stop-color:#FDCA10"/>
			<stop  offset="0.1" style="stop-color:#FDC70C"/>
			<stop  offset="0.4" style="stop-color:#F3903F"/>
			<stop  offset="0.8" style="stop-color:#ED683C"/>
			<stop  offset="1" style="stop-color:#E93E3A"/>
		</linearGradient>
		<path style="fill:url(#SVGID_3_);" d="M552,460c20.324,0,36.8,16.476,36.8,36.8c0,10.162,8.238,18.4,18.4,18.4
			s18.4-8.238,18.4-18.4c0-40.648-32.952-73.6-73.6-73.6s-73.6,32.952-73.6,73.6c0,40.648,32.952,73.6,73.6,73.6
			c20.324,0,36.8,16.476,36.8,36.8c0,20.324-16.476,36.8-36.8,36.8c-20.324,0-36.8-16.476-36.8-36.8c0-10.162-8.238-18.4-18.4-18.4
			c-10.162,0-18.4,8.238-18.4,18.4c0,40.648,32.952,73.6,73.6,73.6s73.6-32.952,73.6-73.6s-32.952-73.6-73.6-73.6
			c-20.324,0-36.8-16.476-36.8-36.8S531.676,460,552,460z"/>
		
			<linearGradient id="SVGID_4_" gradientUnits="userSpaceOnUse" x1="920" y1="1079.46" x2="920" y2="-43.0321" gradientTransform="matrix(1 0 0 -1 0 1102)">
			<stop  offset="0" style="stop-color:#FFF33B"/>
			<stop  offset="0.014" style="stop-color:#FEE72E"/>
			<stop  offset="0.042" style="stop-color:#FED51B"/>
			<stop  offset="0.07" style="stop-color:#FDCA10"/>
			<stop  offset="0.1" style="stop-color:#FDC70C"/>
			<stop  offset="0.4" style="stop-color:#F3903F"/>
			<stop  offset="0.8" style="stop-color:#ED683C"/>
			<stop  offset="1" style="stop-color:#E93E3A"/>
		</linearGradient>
		<path style="fill:url(#SVGID_4_);" d="M920,533.6c-20.324,0-36.8-16.476-36.8-36.8S899.676,460,920,460s36.8,16.476,36.8,36.8
			c0,10.162,8.238,18.4,18.4,18.4s18.4-8.238,18.4-18.4c0-40.648-32.952-73.6-73.6-73.6s-73.6,32.952-73.6,73.6
			c0,40.648,32.952,73.6,73.6,73.6c20.324,0,36.8,16.476,36.8,36.8c0,20.324-16.476,36.8-36.8,36.8s-36.8-16.476-36.8-36.8
			c0-10.162-8.238-18.4-18.4-18.4s-18.4,8.238-18.4,18.4c0,40.648,32.952,73.6,73.6,73.6s73.6-32.952,73.6-73.6
			S960.648,533.6,920,533.6z"/>
		
			<linearGradient id="SVGID_5_" gradientUnits="userSpaceOnUse" x1="735.9998" y1="1075.1912" x2="735.9998" y2="-42.0752" gradientTransform="matrix(1 0 0 -1 0 1102)">
			<stop  offset="0" style="stop-color:#FFF33B"/>
			<stop  offset="0.014" style="stop-color:#FEE72E"/>
			<stop  offset="0.042" style="stop-color:#FED51B"/>
			<stop  offset="0.07" style="stop-color:#FDCA10"/>
			<stop  offset="0.1" style="stop-color:#FDC70C"/>
			<stop  offset="0.4" style="stop-color:#F3903F"/>
			<stop  offset="0.8" style="stop-color:#ED683C"/>
			<stop  offset="1" style="stop-color:#E93E3A"/>
		</linearGradient>
		<path style="fill:url(#SVGID_5_);" d="M772.8,423.2c-13.623,0.048-26.741,5.164-36.8,14.352
			c-22.425-20.456-57.188-18.86-77.645,3.565c-9.292,10.187-14.416,23.495-14.355,37.283v184c0,10.162,8.238,18.4,18.4,18.4
			c10.162,0,18.4-8.238,18.4-18.4v-184c0-10.162,8.238-18.4,18.4-18.4s18.4,8.238,18.4,18.4v184c0,10.162,8.238,18.4,18.4,18.4
			s18.4-8.238,18.4-18.4v-184c0-10.162,8.238-18.4,18.4-18.4s18.4,8.238,18.4,18.4v184c0,10.162,8.238,18.4,18.4,18.4
			c10.162,0,18.4-8.238,18.4-18.4v-184C828,447.914,803.286,423.2,772.8,423.2z"/>
	</g>
</g>
<g>
</g>
<g>
</g>
<g>
</g>
<g>
</g>
<g>
</g>
<g>
</g>
<g>
</g>
<g>
</g>
<g>
</g>
<g>
</g>
<g>
</g>
<g>
</g>
<g>
</g>
<g>
</g>
<g>
</g>
</svg>
